<mxfile host="65bd71144e">
    <diagram id="PSwkkRA805_FCD7kwvl0" name="Page-1">
        <mxGraphModel dx="1091" dy="862" grid="1" gridSize="10" guides="1" tooltips="1" connect="1" arrows="1" fold="1" page="1" pageScale="1" pageWidth="827" pageHeight="1169" background="#ffffff" math="0" shadow="0">
            <root>
                <mxCell id="0"/>
                <mxCell id="1" parent="0"/>
                <mxCell id="23" value="FastAPI Application" style="rounded=0;whiteSpace=wrap;html=1;strokeWidth=2;fillColor=#f0a30a;fontColor=#000000;strokeColor=#BD7000;" vertex="1" parent="1">
                    <mxGeometry x="59" y="240" width="190" height="70" as="geometry"/>
                </mxCell>
                <mxCell id="24" value="OpenTelemetry&lt;br&gt;API and SDK" style="rounded=0;whiteSpace=wrap;html=1;strokeWidth=2;fillColor=#cce5ff;strokeColor=#000000;fontColor=#000000;" vertex="1" parent="1">
                    <mxGeometry x="81.5" y="290" width="145" height="60" as="geometry"/>
                </mxCell>
                <mxCell id="25" value="otel-collector" style="rounded=0;whiteSpace=wrap;html=1;strokeWidth=2;fillColor=#cce5ff;strokeColor=#000000;fontColor=#000000;" vertex="1" parent="1">
                    <mxGeometry x="94" y="410" width="120" height="60" as="geometry"/>
                </mxCell>
                <mxCell id="26" value="jaeger-collector" style="rounded=0;whiteSpace=wrap;html=1;strokeWidth=2;fillColor=#cce5ff;strokeColor=#000000;fontColor=#000000;" vertex="1" parent="1">
                    <mxGeometry x="449" y="290" width="120" height="60" as="geometry"/>
                </mxCell>
                <mxCell id="27" value="&lt;br&gt;DB&lt;br&gt;(Casandra)" style="strokeWidth=2;html=1;shape=mxgraph.flowchart.database;whiteSpace=wrap;fillColor=#cce5ff;strokeColor=#000000;fontColor=#000000;" vertex="1" parent="1">
                    <mxGeometry x="494" y="500" width="90" height="60" as="geometry"/>
                </mxCell>
                <mxCell id="28" value="jaeger-query" style="rounded=0;whiteSpace=wrap;html=1;strokeWidth=2;fillColor=#cce5ff;strokeColor=#000000;fontColor=#000000;" vertex="1" parent="1">
                    <mxGeometry x="649" y="500" width="120" height="60" as="geometry"/>
                </mxCell>
                <mxCell id="29" value="" style="endArrow=classic;html=1;rounded=0;exitX=0.75;exitY=1;exitDx=0;exitDy=0;entryX=0.5;entryY=0;entryDx=0;entryDy=0;entryPerimeter=0;fontColor=#000000;strokeColor=#000000;" edge="1" parent="1" source="26" target="27">
                    <mxGeometry width="50" height="50" relative="1" as="geometry">
                        <mxPoint x="459" y="460" as="sourcePoint"/>
                        <mxPoint x="574" y="510" as="targetPoint"/>
                    </mxGeometry>
                </mxCell>
                <mxCell id="30" value="" style="endArrow=none;html=1;rounded=0;exitX=1;exitY=0.5;exitDx=0;exitDy=0;exitPerimeter=0;entryX=0;entryY=0.5;entryDx=0;entryDy=0;startArrow=classic;startFill=1;endFill=0;fontColor=#000000;strokeColor=#000000;" edge="1" parent="1" source="27" target="28">
                    <mxGeometry width="50" height="50" relative="1" as="geometry">
                        <mxPoint x="459" y="440" as="sourcePoint"/>
                        <mxPoint x="509" y="390" as="targetPoint"/>
                    </mxGeometry>
                </mxCell>
                <mxCell id="31" value="" style="endArrow=classic;html=1;rounded=0;entryX=0.5;entryY=1;entryDx=0;entryDy=0;fontColor=#000000;strokeColor=#000000;" edge="1" parent="1" target="26">
                    <mxGeometry width="50" height="50" relative="1" as="geometry">
                        <mxPoint x="509" y="440" as="sourcePoint"/>
                        <mxPoint x="509" y="410" as="targetPoint"/>
                    </mxGeometry>
                </mxCell>
                <mxCell id="32" value="" style="endArrow=none;html=1;rounded=0;entryX=1;entryY=0.5;entryDx=0;entryDy=0;fontColor=#000000;strokeColor=#000000;" edge="1" parent="1" target="25">
                    <mxGeometry width="50" height="50" relative="1" as="geometry">
                        <mxPoint x="509" y="440" as="sourcePoint"/>
                        <mxPoint x="219" y="440" as="targetPoint"/>
                    </mxGeometry>
                </mxCell>
                <mxCell id="33" value="" style="endArrow=classic;html=1;rounded=0;exitX=0.5;exitY=1;exitDx=0;exitDy=0;entryX=0.5;entryY=0;entryDx=0;entryDy=0;fontColor=#000000;strokeColor=#000000;" edge="1" parent="1" source="24" target="25">
                    <mxGeometry width="50" height="50" relative="1" as="geometry">
                        <mxPoint x="379" y="460" as="sourcePoint"/>
                        <mxPoint x="429" y="410" as="targetPoint"/>
                        <Array as="points">
                            <mxPoint x="154" y="400"/>
                        </Array>
                    </mxGeometry>
                </mxCell>
                <mxCell id="34" value="" style="endArrow=classic;html=1;rounded=0;entryX=0;entryY=0.5;entryDx=0;entryDy=0;exitX=1;exitY=0.5;exitDx=0;exitDy=0;fontColor=#000000;strokeColor=#000000;" edge="1" parent="1" source="24" target="26">
                    <mxGeometry width="50" height="50" relative="1" as="geometry">
                        <mxPoint x="259" y="350" as="sourcePoint"/>
                        <mxPoint x="429" y="410" as="targetPoint"/>
                    </mxGeometry>
                </mxCell>
                <mxCell id="35" value="gRPC" style="text;html=1;resizable=0;autosize=1;align=center;verticalAlign=middle;points=[];fillColor=none;strokeColor=none;rounded=0;fontColor=#000000;" vertex="1" parent="1">
                    <mxGeometry x="98" y="365" width="60" height="30" as="geometry"/>
                </mxCell>
                <mxCell id="36" value="HTTP (Protobuf)" style="text;html=1;resizable=0;autosize=1;align=center;verticalAlign=middle;points=[];fillColor=none;strokeColor=none;rounded=0;fontColor=#000000;" vertex="1" parent="1">
                    <mxGeometry x="305" y="322" width="110" height="30" as="geometry"/>
                </mxCell>
                <mxCell id="37" value="Push with HTTP/gRPC" style="text;html=1;resizable=0;autosize=1;align=center;verticalAlign=middle;points=[];fillColor=none;strokeColor=none;rounded=0;fontColor=#000000;" vertex="1" parent="1">
                    <mxGeometry x="278" y="439" width="150" height="30" as="geometry"/>
                </mxCell>
                <mxCell id="38" value="A" style="ellipse;whiteSpace=wrap;html=1;strokeWidth=2;fontColor=#000000;strokeColor=#000000;fillColor=#FFFFFF;" vertex="1" parent="1">
                    <mxGeometry x="86.5" y="370" width="20" height="20" as="geometry"/>
                </mxCell>
                <mxCell id="39" value="D" style="ellipse;whiteSpace=wrap;html=1;strokeWidth=2;fontColor=#000000;strokeColor=#000000;fillColor=#FFFFFF;" vertex="1" parent="1">
                    <mxGeometry x="291" y="327" width="20" height="20" as="geometry"/>
                </mxCell>
                <mxCell id="40" value="C" style="ellipse;whiteSpace=wrap;html=1;strokeWidth=2;fontColor=#000000;strokeColor=#000000;fillColor=#FFFFFF;" vertex="1" parent="1">
                    <mxGeometry x="291" y="292" width="20" height="20" as="geometry"/>
                </mxCell>
                <mxCell id="41" value="gRPC" style="text;html=1;resizable=0;autosize=1;align=center;verticalAlign=middle;points=[];fillColor=none;strokeColor=none;rounded=0;fontColor=#000000;" vertex="1" parent="1">
                    <mxGeometry x="308" y="292" width="50" height="20" as="geometry"/>
                </mxCell>
                <mxCell id="42" value="HTTP (Protobuf)" style="text;html=1;resizable=0;autosize=1;align=center;verticalAlign=middle;points=[];fillColor=none;strokeColor=none;rounded=0;fontColor=#000000;" vertex="1" parent="1">
                    <mxGeometry x="179" y="365" width="110" height="30" as="geometry"/>
                </mxCell>
                <mxCell id="43" value="B" style="ellipse;whiteSpace=wrap;html=1;strokeWidth=2;fontColor=#000000;strokeColor=#000000;fillColor=#FFFFFF;" vertex="1" parent="1">
                    <mxGeometry x="165" y="370" width="20" height="20" as="geometry"/>
                </mxCell>
                <mxCell id="44" style="edgeStyle=orthogonalEdgeStyle;rounded=0;orthogonalLoop=1;jettySize=auto;html=1;exitX=0;exitY=0.5;exitDx=0;exitDy=0;entryX=1;entryY=0.5;entryDx=0;entryDy=0;fontColor=#000000;strokeColor=#000000;" edge="1" parent="1" source="46" target="48">
                    <mxGeometry relative="1" as="geometry">
                        <Array as="points">
                            <mxPoint x="603" y="352"/>
                            <mxPoint x="603" y="210"/>
                        </Array>
                    </mxGeometry>
                </mxCell>
                <mxCell id="45" style="edgeStyle=orthogonalEdgeStyle;rounded=0;orthogonalLoop=1;jettySize=auto;html=1;exitX=0.5;exitY=1;exitDx=0;exitDy=0;entryX=0.5;entryY=0;entryDx=0;entryDy=0;fontColor=#000000;strokeColor=#000000;" edge="1" parent="1" source="46" target="28">
                    <mxGeometry relative="1" as="geometry">
                        <mxPoint x="693" y="510" as="targetPoint"/>
                    </mxGeometry>
                </mxCell>
                <mxCell id="46" value="Grafana" style="rounded=0;whiteSpace=wrap;html=1;fillColor=#ffe6cc;strokeColor=#000000;strokeWidth=2;fontColor=#000000;" vertex="1" parent="1">
                    <mxGeometry x="649" y="322" width="120" height="60" as="geometry"/>
                </mxCell>
                <mxCell id="47" style="edgeStyle=orthogonalEdgeStyle;rounded=0;orthogonalLoop=1;jettySize=auto;html=1;exitX=0;exitY=0.5;exitDx=0;exitDy=0;entryX=1;entryY=0.5;entryDx=0;entryDy=0;fontColor=#000000;strokeColor=#000000;" edge="1" parent="1" source="48" target="23">
                    <mxGeometry relative="1" as="geometry">
                        <Array as="points">
                            <mxPoint x="353" y="210"/>
                            <mxPoint x="353" y="275"/>
                        </Array>
                        <mxPoint x="333" y="315" as="targetPoint"/>
                    </mxGeometry>
                </mxCell>
                <mxCell id="48" value="Loki" style="rounded=0;whiteSpace=wrap;html=1;fillColor=#ffe6cc;strokeColor=#000000;strokeWidth=2;fontColor=#000000;" vertex="1" parent="1">
                    <mxGeometry x="453" y="180" width="120" height="60" as="geometry"/>
                </mxCell>
                <mxCell id="49" value="Collect&amp;nbsp; Docker Log" style="text;html=1;strokeColor=none;fillColor=none;align=center;verticalAlign=middle;whiteSpace=wrap;rounded=0;strokeWidth=2;fontColor=#000000;" vertex="1" parent="1">
                    <mxGeometry x="330" y="180" width="110" height="30" as="geometry"/>
                </mxCell>
                <mxCell id="50" value="Query" style="text;html=1;strokeColor=none;fillColor=none;align=center;verticalAlign=middle;whiteSpace=wrap;rounded=0;strokeWidth=2;fontColor=#000000;" vertex="1" parent="1">
                    <mxGeometry x="599" y="270" width="50" height="30" as="geometry"/>
                </mxCell>
                <mxCell id="51" value="Query" style="text;html=1;strokeColor=none;fillColor=none;align=center;verticalAlign=middle;whiteSpace=wrap;rounded=0;strokeWidth=2;fontColor=#000000;" vertex="1" parent="1">
                    <mxGeometry x="710" y="430" width="50" height="30" as="geometry"/>
                </mxCell>
            </root>
        </mxGraphModel>
    </diagram>
</mxfile>
